<svg xmlns="http://www.w3.org/2000/svg" width="23.62" height="163.823" viewBox="0 0 23.62 163.823"><path fill="#7C8B90" d="M0 0v163.823h4.593l7.169-7.169 7.157 7.169h4.701V0M4.282 14.517L3 15.799V2.518l6.641 6.641-5.359 5.358zm-.824 5.066l8.304-8.304 8.38 8.38-8.38 8.38-8.38-8.38.076-.076zM9.641 30.16L3 36.801V23.52l6.641 6.64zm2.121 2.121l8.33 8.33-8.33 8.33-8.33-8.33 8.33-8.33zM9.641 51.062L3 57.703V44.421l6.641 6.641zm2.121 2.121l8.229 8.229-8.229 8.23-8.229-8.229 8.229-8.23zM9.641 71.764L3 78.405V65.123l6.641 6.641zM3 85.92l6.639 6.628L3 99.175V85.92zm8.762 8.747l8.247 8.232-8.247 8.247-8.247-8.247 8.247-8.232zm8.858 4.604l-6.735-6.723 6.735-6.724v13.447zm-8.858-8.843l-8.278-8.264 8.278-8.279 8.279 8.279-8.279 8.264zm-2.121 22.84L3 119.909v-13.282l6.641 6.641zm2.121 2.121l8.137 8.137-8.137 8.137-8.137-8.137 8.137-8.137zm-2.121 18.394L3 140.425v-13.282l6.641 6.64zm2.121 2.121l8.254 8.254-8.254 8.254-8.254-8.254 8.254-8.254zm2.122-2.121l6.736-6.737v13.475l-6.736-6.738zm0-20.515l6.736-6.737v13.475l-6.736-6.738zm-.001-41.504l6.737-6.737V78.5l-6.737-6.736zm0-20.702l6.737-6.737v13.474l-6.737-6.737zm0-20.902l6.737-6.737v13.474l-6.737-6.737zm5.473-15.529l-5.474-5.473 6.737-6.737v13.474l-1.263-1.264zM23.62 0h-4.821l-7.037 7.037L4.725 0H0m3 161.175v-13.282l6.641 6.641L3 161.175zm17.62-13.379v13.475l-6.736-6.737 6.736-6.738z"/></svg>