<svg xmlns="http://www.w3.org/2000/svg" width="435.627" height="50.312" viewBox="0 0 435.627 50.312"><path fill="#7C8B90" d="M434.132 39.646l-1.502 4.396h-.003v.836l-17.62-20.413v-1.06h.002l-.002-.004v-.01h-.004l-1.498-4.387-1.504 4.401h.006v.76c-4.015-1.036-21.799-5.494-48.484-10.307l-.018-.017-.011.012a914.26 914.26 0 0 0-41.497-6.496s-1.798-.239-2.391-.316l-.044-.046-.038.036C290.007 3.184 255.584.181 219.42.011V0h-3.234v.012c-36.157.17-70.577 3.173-100.09 7.02l-2.471.327a914.32 914.32 0 0 0-41.498 6.496l-.01-.011-.017.015c-26.674 4.811-44.455 9.267-48.48 10.306v-.759h.005l-1.503-4.401-1.499 4.387h-.003v.01l-.001.004h.001v1.06L3 44.878v-.836h-.002l-1.502-4.396-1.503 4.401H0v6.265h1.304v.015h433.02v-.015h1.304v-6.265h.008l-1.504-4.401zM179.831 4.104c5.341-.291 10.749-.53 16.213-.71L179.831 21.66V4.104zm-42.994 3.485a853.776 853.776 0 0 1 16.922-1.641L136.837 23.63V7.589zm-43.105 5.673a914.816 914.816 0 0 1 16.254-2.386L93.732 26.591V13.262zm-39.648 7.101a862.759 862.759 0 0 1 13.921-2.706L54.084 30.569V20.363zm-20.428 4.442l-4.823 8.706-4.218-6.504a424.64 424.64 0 0 1 9.041-2.202zM20.62 29.056v18.271H4.85l15.77-18.271zm3 1.93l3.565 5.499-3.565 6.436V30.986zm.989 16.34l4.426-7.989 5.18 7.989h-9.606zm6.074-10.962l6.645-11.996 13.133 9.562L37.125 46.3l-6.442-9.936zm20.401 10.962H40.43l10.654-9.882v9.882zm0-16.651l-10.29-7.493c3.069-.68 6.504-1.42 10.29-2.204v9.697zm3 16.651V36.569l14.773 10.757H54.084zm1.089-13.675l18.141-16.827 16.628 13.431-16.941 16.379-17.828-12.983zm35.559 13.675H76.601l14.131-13.662v13.662zm0-20.29L77.09 16.018c4.34-.76 8.894-1.524 13.642-2.282v13.3zm3 20.29V33.315l17.348 14.011H93.732zm.735-17.273l20.536-19.854.068-.009 18.194 17.174-18.366 19.191-20.432-16.502zm39.37 17.273h-15.525l15.525-16.222v16.222zm0-23.548L118.914 9.691c4.85-.619 9.83-1.213 14.923-1.775v15.862zm3 23.548V30.735l17.576 16.591h-17.576zm.684-20.071l20.401-21.318 18.393 19.684-18.475 20.814-20.319-19.18zm39.31 20.071h-15.77l15.77-17.767v17.767zm0-25.547L161.449 5.318a795.692 795.692 0 0 1 15.381-1.046v17.507zm3 25.547V29.384l16.764 17.942h-16.764zm.541-21.757l19.23-21.666 16.321 21.348-16.132 21.101-19.419-20.783zm35.932 21.757h-13.481l13.481-17.634v17.634zm0-26.515L202.842 3.202c4.457-.105 8.945-.17 13.462-.191v17.8zm194.703 6.196l-4.218 6.504-4.822-8.706a424.04 424.04 0 0 1 9.04 2.202zm-26.47-6.029c3.786.784 7.222 1.524 10.29 2.204l-10.29 7.493v-9.697zm-39.646-7.241c4.748.757 9.301 1.521 13.641 2.282l-13.641 11.017V13.737zm-43.106-5.82a882.296 882.296 0 0 1 14.922 1.775l-14.922 14.086V7.917zm-42.994-3.645a811.51 811.51 0 0 1 15.382 1.046L258.791 21.78V4.272zm-39.487-1.261c4.522.021 9.016.085 13.477.191L219.304 20.83V3.011zm0 44.315V29.675L232.8 47.326h-13.496zm.395-22.074L236.02 3.904l19.23 21.666-19.42 20.783-16.131-21.101zm36.092 22.074h-16.765l16.765-17.942v17.942zm0-25.667L239.578 3.394c5.465.181 10.872.42 16.213.711v17.554zm3 25.667V29.559l15.771 17.768h-15.771zm.517-21.705L277.7 5.937l20.4 21.318-20.317 19.181-18.475-20.815zm39.477 21.705h-17.576l17.576-16.592v16.592zm0-23.695L281.864 5.948c5.759.5 11.403 1.052 16.921 1.642v16.041zm3 23.695V31.105l15.522 16.221h-15.522zm.571-19.964l18.192-17.172.069.009 20.536 19.854-20.432 16.501-18.365-19.192zm39.535 19.964h-17.35l17.35-14.012v14.012zm0-20.735l-16.255-15.714a913.608 913.608 0 0 1 16.255 2.386v13.328zm3 20.735V33.665l14.13 13.661h-14.13zm.789-17.071l16.628-13.43 18.142 16.827-17.828 12.982-16.942-16.379zm35.857 17.071h-14.772l14.772-10.757v10.757zm0-16.758l-13.919-12.91c5.005.93 9.656 1.839 13.919 2.705v10.205zm3 16.758v-9.883l10.654 9.883h-10.654zm.625-13.395l13.132-9.562 6.646 11.996-6.442 9.936-13.336-12.37zm16.245 13.395l5.18-7.988 4.426 7.988h-9.606zm10.595-4.406l-3.565-6.436 3.565-5.498V42.92zm3.005 4.406v-18.27l15.771 18.271h-15.771z"/></svg>