<?xml version="1.0" encoding="UTF-8" standalone="no"?>
<!-- Created with Inkscape (http://www.inkscape.org/) -->

<svg
   xmlns:dc="http://purl.org/dc/elements/1.1/"
   xmlns:cc="http://creativecommons.org/ns#"
   xmlns:rdf="http://www.w3.org/1999/02/22-rdf-syntax-ns#"
   xmlns:svg="http://www.w3.org/2000/svg"
   xmlns="http://www.w3.org/2000/svg"
   xmlns:sodipodi="http://sodipodi.sourceforge.net/DTD/sodipodi-0.dtd"
   xmlns:inkscape="http://www.inkscape.org/namespaces/inkscape"
   width="679.83148mm"
   height="728.1756mm"
   viewBox="0 0 2408.8517 2580.1497"
   id="svg35985"
   version="1.1"
   inkscape:version="0.91 r13725"
   sodipodi:docname="meltypizza.svg">
  <defs
     id="defs35987" />
  <sodipodi:namedview
     id="base"
     pagecolor="#ffffff"
     bordercolor="#666666"
     borderopacity="1.0"
     inkscape:pageopacity="0.0"
     inkscape:pageshadow="2"
     inkscape:zoom="0.1566991"
     inkscape:cx="1224.2942"
     inkscape:cy="1258.0123"
     inkscape:document-units="px"
     inkscape:current-layer="g36666"
     showgrid="false"
     fit-margin-top="0"
     fit-margin-left="0"
     fit-margin-right="0"
     fit-margin-bottom="0"
     inkscape:window-width="1916"
     inkscape:window-height="1035"
     inkscape:window-x="4"
     inkscape:window-y="1"
     inkscape:window-maximized="1" />
  <metadata
     id="metadata35990">
    <rdf:RDF>
      <cc:Work
         rdf:about="">
        <dc:format>image/svg+xml</dc:format>
        <dc:type
           rdf:resource="http://purl.org/dc/dcmitype/StillImage" />
        <dc:title></dc:title>
      </cc:Work>
    </rdf:RDF>
  </metadata>
  <g
     inkscape:label="Layer 1"
     inkscape:groupmode="layer"
     id="layer1"
     transform="translate(2153.4266,1610.5645)">
    <g
       id="g36643"
       transform="matrix(2.7206359,0,0,2.6152641,-438.84311,-1566.7493)">
      <g
         id="g36666">
        <g
           id="g36713">
          <path
             sodipodi:nodetypes="cczccccc"
             inkscape:connector-curvature="0"
             id="path36544"
             d="M -625.71429,78.07649 C -579.41068,-66.194202 -390.73098,-2.1037499 -286.02351,29.842233 -173.18793,63.322715 55.787703,-42.91883 59.838557,72.174054 63.889411,187.26694 59.766344,349.57955 78.112259,477.8728 95.766207,617.47821 132.65483,763.04534 230.93649,868.90606 164.71353,1035.6312 8.4676541,783.31233 -91.207847,751.87419 -215.38096,641.43319 -329.98224,499.8876 -450.54715,385.44096 -533.21654,299.09614 -567.04167,180.90098 -625.71429,78.07649 Z"
             style="fill:#b49e77;fill-opacity:1;fill-rule:evenodd;stroke:#000000;stroke-width:9;stroke-linecap:round;stroke-linejoin:round;stroke-miterlimit:4;stroke-dasharray:none;stroke-opacity:1" />
          <path
             sodipodi:nodetypes="zcccacccccccccccccsccccz"
             inkscape:connector-curvature="0"
             id="path36552"
             d="m -365.93257,149.28114 c -53.17227,-1.6603 -136.08418,15.57101 -195.21011,47.78024 -31.84857,23.19064 -12.17411,61.78794 25.86717,45.03589 20.2414,-1.38201 56.35376,-24.90708 34.87732,9.15434 -10.52725,31.41145 -26.60086,73.49853 -11.17432,104.74981 15.32032,31.0361 90.33572,6.90901 87.73759,51.23011 5.01667,35.26315 -5.41034,83.89575 30.70492,105.41397 27.95661,-2.0211 67.06284,-48.07959 102.17247,-14.77575 36.33086,25.2174 28.77727,72.10471 27.98372,109.85945 0.64369,39.16396 37.70013,76.81665 78.02028,64.15537 36.50672,-27.09075 89.445774,-3.77156 87.834345,43.90016 5.035309,40.13827 4.855787,105.27581 55.4341,112.63205 33.8339229,-9.35795 100.066207,-51.89242 96.054844,14.98409 -5.983482,31.8833 -20.395328,92.37411 21.878865,103.3932 38.202166,-2.69498 28.713306,-87.09431 74.770526,-53.33062 33.11692,14.85964 21.30542,95.75594 61.84628,64.93964 51.04158,-36.84571 44.14029,-113.90697 16.18562,-163.12511 C 202.06867,718.44065 139.15972,659.73538 114.0495,582.42703 102.03925,530.5217 110.43183,472.01832 103.57916,418.92775 96.726485,365.83718 74.628571,318.15942 82.862593,264.69815 c 4.153832,-41.4227 21.860537,-87.13237 1.540044,-126.66486 -35.040903,-31.8368 -90.6239274,-8.4145 -134.038282,-12.14977 -67.982565,4.55916 -133.442125,25.7813 -200.830995,33.31517 -39.90676,2.05926 -62.29367,-8.25726 -115.46593,-9.91755 z"
             style="fill:#eedb5c;fill-opacity:1;fill-rule:evenodd;stroke:#000000;stroke-width:9;stroke-linecap:round;stroke-linejoin:round;stroke-miterlimit:4;stroke-dasharray:none;stroke-opacity:1" />
          <path
             style="fill:none;fill-rule:evenodd;stroke:#000000;stroke-width:9;stroke-linecap:round;stroke-linejoin:round;stroke-miterlimit:4;stroke-dasharray:none;stroke-opacity:1"
             d="m -562.07679,4.5938702 c 6.22752,4.5415294 9.59563,11.1527358 17.93906,8.9253548 9.02563,-0.480565 17.0203,4.548572 25.08349,7.840643 8.51459,3.781553 12.63171,12.373878 15.99248,20.47598 5.13075,11.759417 7.82733,25.013944 5.2448,37.750064 2.5511,10.351824 -0.92747,22.449478 -10.38235,28.144498 -6.90919,3.53479 -8.2844,11.42485 -12.91721,16.94001 -5.74352,7.75798 -14.67224,12.04206 -23.74754,14.57046 -13.55773,4.42054 -27.56921,7.96639 -41.85512,8.74005"
             id="path36558"
             inkscape:connector-curvature="0"
             sodipodi:nodetypes="ccccccccc" />
          <path
             inkscape:connector-curvature="0"
             id="path36565"
             d="m -240,300.93364 c -8.57274,33.43787 -52.29533,28.64162 -75.59804,46.96447 -35.13065,5.08086 -58.47364,-37.71316 -53.10982,-68.67666 6.61315,-35.27371 47.01793,-55.71397 80.30382,-45.09127 32.52877,1.27382 64.99762,34.78843 48.40404,66.80346 l 0,0 z"
             style="fill:#cb4036;fill-opacity:1;fill-rule:evenodd;stroke:#000000;stroke-width:9;stroke-linecap:round;stroke-linejoin:round;stroke-miterlimit:4;stroke-dasharray:none;stroke-opacity:1" />
          <path
             inkscape:connector-curvature="0"
             id="path36572"
             d="m 0,300.93364 c -8.5727398,33.43787 -52.295334,28.64163 -75.598046,46.96447 -35.130644,5.08086 -58.473634,-37.71316 -53.109814,-68.67666 6.61315,-35.27371 47.017932,-55.71397 80.303829,-45.09127 33.01583,2.52993 64.862028,33.27796 48.404031,66.80346 z"
             style="fill:#cb4036;fill-opacity:1;fill-rule:evenodd;stroke:#000000;stroke-width:9;stroke-linecap:round;stroke-linejoin:round;stroke-miterlimit:4;stroke-dasharray:none;stroke-opacity:1" />
          <path
             inkscape:connector-curvature="0"
             id="path36574"
             d="m -113.73468,461.8527 c -8.57274,33.43787 -52.29533,28.64162 -75.59804,46.96447 -35.13065,5.08086 -58.47364,-37.71316 -53.10982,-68.67666 6.61315,-35.27371 47.01793,-55.71397 80.30382,-45.09127 32.52877,1.27382 64.997624,34.78843 48.40404,66.80346 l 0,0 z"
             style="fill:#cb4036;fill-opacity:1;fill-rule:evenodd;stroke:#000000;stroke-width:9;stroke-linecap:round;stroke-linejoin:round;stroke-miterlimit:4;stroke-dasharray:none;stroke-opacity:1" />
          <path
             inkscape:connector-curvature="0"
             id="path36576"
             d="m 68.46122,548.35624 c -8.57274,33.43787 -52.295335,28.64162 -75.5980459,46.96447 -35.1306451,5.08086 -58.4736371,-37.71316 -53.1098161,-68.67666 6.613155,-35.27371 47.017935,-55.71397 80.303831,-45.09127 32.528768,1.27382 64.99762,34.78843 48.404031,66.80346 l 0,0 z"
             style="fill:#cb4036;fill-opacity:1;fill-rule:evenodd;stroke:#000000;stroke-width:9;stroke-linecap:round;stroke-linejoin:round;stroke-miterlimit:4;stroke-dasharray:none;stroke-opacity:1" />
          <path
             inkscape:connector-curvature="0"
             id="path36578"
             d="m 160,752.36221 c -8.57274,33.43787 -52.29534,28.64162 -75.598046,46.96447 -35.130645,5.08086 -58.473638,-37.71316 -53.109817,-68.67666 6.613154,-35.27371 47.017931,-55.71397 80.303823,-45.09127 32.52877,1.27382 64.99762,34.78843 48.40404,66.80346 l 0,0 z"
             style="fill:#cb4036;fill-opacity:1;fill-rule:evenodd;stroke:#000000;stroke-width:9;stroke-linecap:round;stroke-linejoin:round;stroke-miterlimit:4;stroke-dasharray:none;stroke-opacity:1" />
          <path
             inkscape:connector-curvature="0"
             id="path36580"
             d="m -448.57143,189.50506 c 3.48957,58.35878 48.31903,46.60096 88.57143,37.14285"
             style="fill:none;fill-rule:evenodd;stroke:#000000;stroke-width:9;stroke-linecap:round;stroke-linejoin:round;stroke-miterlimit:4;stroke-dasharray:none;stroke-opacity:1" />
          <path
             inkscape:connector-curvature="0"
             id="path36582"
             d="M -228.57143,198.07649 C -180.14655,231.6705 -170.25575,261.56083 -120,212.3622"
             style="fill:none;fill-rule:evenodd;stroke:#000000;stroke-width:9;stroke-linecap:round;stroke-linejoin:round;stroke-miterlimit:4;stroke-dasharray:none;stroke-opacity:1" />
          <path
             inkscape:connector-curvature="0"
             id="path36584"
             d="m -60,378.07649 c 2.484147,64.28751 53.8663273,61.15664 96.104007,76.32609 l 6.753136,-7.75466"
             style="fill:none;fill-rule:evenodd;stroke:#000000;stroke-width:9;stroke-linecap:round;stroke-linejoin:round;stroke-miterlimit:4;stroke-dasharray:none;stroke-opacity:1" />
          <path
             inkscape:connector-curvature="0"
             id="path36586"
             d="m -194.28571,540.93363 c -21.54175,43.42782 49.04294,27.05254 40.43083,68.51989 12.36322,7.43439 39.78292,13.72609 45.28345,-5.66274"
             style="fill:none;fill-rule:evenodd;stroke:#000000;stroke-width:9;stroke-linecap:round;stroke-linejoin:round;stroke-miterlimit:4;stroke-dasharray:none;stroke-opacity:1" />
          <path
             sodipodi:nodetypes="csc"
             inkscape:connector-curvature="0"
             id="path36588"
             d="m -71.428571,703.79077 c -8.642486,18.93071 26.216079,-0.0396 42.948839,25.02832 16.732761,25.0679 3.911146,39.88826 25.6225891,40.68597"
             style="fill:none;fill-rule:evenodd;stroke:#000000;stroke-width:9;stroke-linecap:round;stroke-linejoin:round;stroke-miterlimit:4;stroke-dasharray:none;stroke-opacity:1" />
          <path
             sodipodi:nodetypes="csc"
             inkscape:connector-curvature="0"
             id="path36590"
             d="m 180,820.93363 c 8.01823,8.89546 -8.35588,30.09781 -1.76178,40.97513 6.5941,10.87731 19.01355,11.42958 16.04749,24.73916"
             style="fill:none;fill-rule:evenodd;stroke:#000000;stroke-width:9;stroke-linecap:round;stroke-linejoin:round;stroke-miterlimit:4;stroke-dasharray:none;stroke-opacity:1" />
          <path
             inkscape:connector-curvature="0"
             id="path36592"
             d="m 48.571429,629.50506 c -9.020499,72.6617 37.777626,0.24205 65.714281,22.85714"
             style="fill:none;fill-rule:evenodd;stroke:#000000;stroke-width:9;stroke-linecap:round;stroke-linejoin:round;stroke-miterlimit:4;stroke-dasharray:none;stroke-opacity:1" />
          <path
             inkscape:connector-curvature="0"
             id="path36594"
             d="m -368.57143,386.64792 c -8.75024,61.5672 68.21313,53.4458 97.14286,22.85714"
             style="fill:none;fill-rule:evenodd;stroke:#000000;stroke-width:9;stroke-linecap:round;stroke-linejoin:round;stroke-miterlimit:4;stroke-dasharray:none;stroke-opacity:1" />
        </g>
      </g>
    </g>
  </g>
</svg>
